<?xml version="1.0" standalone="no"?>
<!DOCTYPE svg PUBLIC "-//W3C//DTD SVG 20010904//EN"
 "http://www.w3.org/TR/2001/REC-SVG-20010904/DTD/svg10.dtd">
<svg version="1.0" xmlns="http://www.w3.org/2000/svg"
 width="2rem" height="2rem" viewBox="0 0 320.564824 319.379993"
 preserveAspectRatio="xMidYMid meet">
<metadata>
Created by potrace 1.12, written by Peter Selinger 2001-2015
</metadata>
<g transform="translate(-87.175665,424.800569) scale(0.100000,-0.100000)"
fill="#000000" stroke="none">
<path d="M2320 4239 c-383 -36 -733 -207 -1006 -491 -376 -391 -525 -948 -397
-1478 112 -464 429 -853 868 -1065 123 -60 226 -94 377 -127 138 -29 453 -32
596 -5 271 51 516 164 734 340 399 321 625 850 580 1359 -34 382 -179 708
-431 971 -283 295 -633 464 -1027 497 -133 11 -172 11 -294 -1z m467 -98 c298
-66 538 -197 757 -412 l119 -117 -7 -88 c-12 -143 -29 -229 -46 -231 -67 -8
-95 -18 -140 -49 l-51 -35 -72 29 c-273 113 -592 164 -881 142 -76 -6 -159
-15 -184 -21 -37 -8 -47 -7 -51 3 -8 26 -98 104 -131 114 -35 10 -35 11 -32
59 9 153 76 414 142 562 34 75 23 72 295 68 147 -2 211 -8 282 -24z m-668 -63
c-57 -140 -103 -327 -122 -488 l-12 -104 -35 -10 c-20 -6 -57 -32 -86 -61 -44
-43 -54 -61 -64 -108 -6 -31 -9 -65 -6 -75 5 -14 -8 -24 -62 -51 -272 -133
-569 -392 -735 -640 -29 -43 -38 -51 -43 -37 -12 31 4 368 21 446 119 541 491
962 1010 1142 61 21 120 38 132 38 l23 0 -21 -52z m1674 -666 c88 -149 154
-326 182 -488 21 -123 21 -123 -33 -73 -26 24 -64 59 -85 77 l-38 33 12 53
c10 44 9 62 -5 109 -16 54 -62 115 -108 142 -16 9 -16 17 0 122 9 61 19 110
23 107 4 -2 28 -39 52 -82z m-1704 -17 c43 -21 78 -69 86 -114 9 -54 -22 -123
-67 -151 -44 -26 -122 -27 -165 0 -36 21 -73 85 -73 125 0 55 45 125 95 145
32 14 94 11 124 -5z m825 -114 c136 -24 294 -68 393 -110 l68 -29 6 -79 c6
-88 22 -126 74 -172 l36 -31 -57 -110 c-113 -221 -221 -366 -418 -558 l-136
-132 -53 30 c-68 38 -160 42 -221 9 -32 -17 -41 -18 -51 -7 -207 225 -369 528
-440 820 -14 57 -25 108 -25 113 0 6 22 22 50 37 58 32 102 99 110 167 4 40 8
46 35 52 127 33 440 32 629 0z m776 -93 c68 -47 88 -129 48 -200 -94 -166
-351 -35 -268 136 28 59 71 86 136 86 37 0 60 -6 84 -22z m-1842 -77 c22 -30
113 -81 143 -81 20 0 20 -2 44 -115 61 -283 227 -607 428 -833 26 -29 47 -56
47 -61 0 -5 -7 -26 -16 -47 -12 -27 -15 -57 -11 -99 l4 -61 -91 -38 c-275
-117 -524 -167 -824 -165 -215 0 -219 1 -279 74 -68 82 -147 204 -193 300 -48
99 -109 280 -116 343 -5 44 -2 52 52 132 174 260 409 475 684 627 52 29 98 53
101 53 3 0 15 -13 27 -29z m2076 -350 l79 -79 -6 -119 c-17 -351 -150 -662
-406 -951 -63 -73 -65 -74 -103 -68 -113 18 -326 103 -486 194 -69 39 -82 50
-77 67 14 49 16 113 6 150 l-11 40 63 54 c216 188 393 414 522 669 l57 112 38
0 c46 0 112 23 147 50 l25 20 37 -29 c20 -16 72 -66 115 -110z m-1150 -731
c61 -30 81 -63 81 -135 0 -72 -27 -116 -87 -140 -49 -19 -68 -19 -119 1 -59
24 -93 81 -87 149 5 62 29 97 83 125 50 25 78 25 129 0z m-221 -301 c72 -68
179 -81 267 -33 l52 28 46 -28 c97 -57 291 -146 397 -182 61 -20 113 -40 117
-43 12 -11 -156 -123 -273 -182 -318 -161 -676 -204 -1030 -125 -217 49 -440
160 -627 311 l-62 50 178 6 c194 8 345 27 486 64 113 30 270 84 356 124 36 16
66 30 68 30 2 1 13 -8 25 -20z"/>
</g>
</svg>
